<?xml version="1.0" standalone="no"?><!DOCTYPE svg PUBLIC "-//W3C//DTD SVG 1.1//EN" "http://www.w3.org/Graphics/SVG/1.1/DTD/svg11.dtd"><svg t="1638106688533" class="icon" viewBox="0 0 1024 1024" version="1.1" xmlns="http://www.w3.org/2000/svg" p-id="2303" xmlns:xlink="http://www.w3.org/1999/xlink" width="200" height="200"><defs><style type="text/css"></style></defs><path d="M947.2 902.4L736 691.2c64-64 96-147.2 96-243.2 0-211.2-172.8-384-384-384S64 236.8 64 448s172.8 384 384 384c96 0 179.2-32 249.6-89.6l211.2 211.2c12.8 12.8 32 12.8 44.8 0s6.4-38.4-6.4-51.2zM128 448c0-179.2 140.8-320 320-320s320 140.8 320 320-140.8 320-320 320-320-140.8-320-320z" p-id="2304" fill="#515151"></path></svg>